<?xml version="1.0" encoding="utf-8"?>
<!-- Generator: Adobe Illustrator 21.1.0, SVG Export Plug-In . SVG Version: 6.00 Build 0)  -->
<svg version="1.1" id="Calque_1" xmlns="http://www.w3.org/2000/svg" xmlns:xlink="http://www.w3.org/1999/xlink" x="0px" y="0px"
	 viewBox="0 0 432 432" style="enable-background:new 0 0 432 432;" xml:space="preserve">
<style type="text/css">
	.st0{fill:#1B1B1B;}
	.st1{fill:#746458;}
	.st2{fill:#C1944E;}
	.st3{fill-rule:evenodd;clip-rule:evenodd;fill:#C1944E;}
	.st4{fill:#020203;}
	.st5{fill:#92AA3C;}
	.st6{fill:#A67D52;}
	.st7{fill:#C69C6C;}
	.st8{fill:#E7E6E6;}
	.st9{fill:#B83A44;}
	.st10{fill:#78716A;}
	.st11{fill:#343434;}
	.st12{fill:#AC2F39;}
	.st13{fill:#B4B4B4;}
	.st14{fill:#BA9BC9;}
	.st15{fill:#CA9685;}
	.st16{fill:#99A5AF;}
	.st17{fill:#6B897C;}
	.st18{fill:#718AA5;}
	.st19{fill:#B28E81;}
	.st20{fill:#808181;}
	.st21{fill:#AD8963;}
	.st22{fill:#CDCCCC;}
	.st23{fill:#CC9485;}
	.st24{fill:#A192B1;}
	.st25{fill:#758971;}
	.st26{fill:#97A8B2;}
	.st27{fill:#5B6876;}
	.st28{fill:#7A8F44;}
	.st29{fill:#30354C;}
	.st30{fill:#6D798D;}
	.st31{fill:#946277;}
	.st32{fill:#4E4D4D;}
	.st33{fill:#D59985;}
	.st34{fill:#975B5D;}
	.st35{fill:#566567;}
	.st36{fill:#BBCC53;}
	.st37{fill:#A9807A;}
	.st38{fill:#676767;}
	.st39{fill:#BF8B7B;}
	.st40{fill:#743F2F;}
	.st41{fill:#C29347;}
	.st42{fill-rule:evenodd;clip-rule:evenodd;fill:#C29347;}
	.st43{fill:#BF924C;}
	.st44{fill:#D39A46;}
	.st45{fill:#476FA1;}
	.st46{fill:#BF694C;}
	.st47{fill:#934735;}
	.st48{fill:#F39A94;}
	.st49{fill:#F7BDB9;}
	.st50{fill:#2B2525;}
	.st51{fill:#DAB0B3;}
	.st52{fill:#8E6568;}
	.st53{fill:#BD684F;}
	.st54{fill:#EAAA63;}
	.st55{fill:#6D8FB0;}
	.st56{fill:#E99C4F;}
	.st57{fill:#EB8563;}
	.st58{fill:#F39149;}
	.st59{fill:#B56955;}
	.st60{fill:#B73736;}
	.st61{fill:#D8AD74;}
	.st62{fill:#C07A41;}
	.st63{fill:#F9B03D;}
	.st64{fill:#C1292E;}
	.st65{fill:#A8A1CF;}
	.st66{fill:#F8C6CC;}
	.st67{fill:#AE748E;}
	.st68{fill:#738998;}
	.st69{fill:#5B856E;}
	.st70{fill:#32353E;}
	.st71{fill:#537791;}
	.st72{fill:#3C3C3A;}
	.st73{fill:#823231;}
	.st74{fill:#C19446;}
	.st75{fill:#CDA372;}
	.st76{fill:#C26647;}
	.st77{fill:#B16F59;}
	.st78{fill:#823D26;}
	.st79{fill:#C7AA72;}
	.st80{fill:#A46B75;}
	.st81{fill:#688698;}
	.st82{fill:#C1949E;}
	.st83{fill:#7CA991;}
	.st84{fill:#758F5E;}
	.st85{fill:#908E60;}
	.st86{fill:#4C4B3D;}
	.st87{fill:#4E5E6E;}
	.st88{fill:#C1BD99;}
	.st89{fill:#DEE3B1;}
	.st90{fill:#ADA6AD;}
	.st91{fill:#90535D;}
	.st92{fill:#59493C;}
	.st93{fill:#009245;}
	.st94{fill:#3B8E5F;}
	.st95{fill:#82A0B3;}
	.st96{fill:#974B4B;}
	.st97{fill:#FFFFFF;}
	.st98{fill:#D7A564;}
	.st99{fill:#C78859;}
	.st100{fill:#76ABBC;}
	.st101{fill:#58A2B3;}
	.st102{fill:#797AA5;}
	.st103{fill:#B38F6E;}
	.st104{fill:#739AA8;}
	.st105{fill:#CD9C8C;}
</style>
<g>
	<g>
		<path class="st20" d="M152.7,353.1c-1.7-3.4-4.5-5.4-8.2-6.1c-1.7-0.3-3.5-0.3-5.2-0.3c-4.6,0.2-9.1,1.1-13.6,1.9
			c-1.8,0.3-3.6,0.6-5.5,0.9c-0.6-4-1.2-7.8-1.7-11.5c-0.6-4.2-1.2-8.4-1.8-12.6c-0.6-4.3-1.3-8.6-1.9-12.9c-0.6-4.3-1.3-8.7-1.8-13
			c-0.6-4.6-1.2-9.1-1.8-13.7c-0.7-5.5-1.4-11.1-2.1-16.6c-0.7-5.1-1.3-10.1-2-15.2c-0.8-6.1-1.5-12.2-2.3-18.3
			c-0.7-5.4-7.3-64.4-8-69.8c-0.3-2.4-0.8-4.7-1.3-7c-0.3-1.3-0.8-2.6-1.6-3.7c-1.4-1.9-3.8-1.5-4.7,0.6c-0.2,0.5-0.4,1.1-0.4,1.7
			c-0.1,1.2-0.2,2.4-0.2,3.7c0.3,9.4,6.9,72.3,7.9,81.7c1.1,10,2.4,20,3.7,30c1,7.2,1.8,14.4,2.7,21.6c0.9,7.1,1.9,14.2,2.9,21.4
			c0.9,6.3,1.8,12.7,2.7,19c0.9,6.5,1.7,13,3.1,19.4c0.3,1.3,0.7,2.5,1.2,3.7c1.1,2.3,3.1,3.6,5.4,4.6c2.1,0.9,4.4,1.4,6.7,1.8
			c4.9,0.7,9.7,1.4,14.6,2.2c0.8,0.1,1.7,0.2,2.6,0.2c2.4,0.1,4.8-0.2,6.9-1.5C153.2,362.8,155.3,358.2,152.7,353.1z"/>
		<path class="st22" d="M92.4,346.5c5,0,9.1,3.2,9.9,7.9c0.8,4.2-0.7,7.7-4,10.2c-3.2,2.5-6.8,3.1-10.6,1.9
			c-3.6-1.1-5.6-3.7-6.4-7.2c-0.8-3.8,0.4-7,3.2-9.6C86.6,347.8,89.3,346.5,92.4,346.5z"/>
	</g>
	<g>
		<g>
			<path class="st0" d="M316,200.2c0.8-0.6,1.6-1.2,2.4-1.8c3.2-2.7,5.9-5.7,8.2-9.3c4.8-7.6,8.8-15.6,12.3-23.9
				c0.6-1.4,1.2-2.7,1.9-4.1c0.6-1.1,1.5-1.6,2.8-1.4c1.1,0.2,1.9,0.9,2,2c0.1,0.7,0,1.5-0.1,2.2c-0.5,2.2-1.2,4.4-2.1,6.5
				c-2.5,5.6-4.9,11.3-8.3,16.4c-3.8,5.9-7.6,11.7-12.7,16.5c-1.9,1.8-4,3.4-6.1,5.1c-0.6,0.5-0.8,0.9-0.9,1.6
				c-0.2,1.5,0.4,2.3,1.5,3.1c8.1,6.1,14.1,14,18.7,23.1c4.6,9.1,7.7,18.8,9.3,28.9c0.7,4.4,1.2,8.8,1.1,13.2
				c-0.1,6.9-1.1,13.7-3.5,20.3c-1.2,3.2-3,6.1-5.4,8.5c-4.1,4.2-8.9,5.1-14.4,3.3c-3.5-1.1-6.3-3.2-8.7-5.8
				c-3.7-4.1-6.3-8.9-8.4-14c-2.6-6.3-4.4-12.9-5.6-19.6c-1.2-6.7-2.1-13.5-2.5-20.3c-0.3-4.5-0.5-9.1-0.7-13.6
				c-0.1-5.7-0.1-11.5-0.2-17.2c0-1.6,0.1-3.3,0.1-4.9c0-0.3,0-0.6-0.2-0.9c-0.1,0.4-0.3,0.7-0.4,1.1c-1.6,3.9-3.1,7.8-4.8,11.7
				c-1.6,3.7-3.7,7.1-6.2,10.3c-0.8,1-1.7,1.9-2.5,2.8c-3.4,3.5-7.6,4.2-12.1,2.8c-1.9-0.6-3.7-1.6-5.3-2.8
				c-5-3.7-8.5-8.6-10.6-14.5c-1.6-4.2-2.5-8.6-3.3-13c-1.3-7.1-2.1-14.2-2.5-21.4c-0.2-2.9-0.3-5.7-0.4-8.6c0-0.3,0-0.5-0.1-0.9
				c-1.2,0.7-2.3,1.4-3.4,2c-1.1,0.6-2.2,1.1-3.4,1.7c0.1,1.4,0.3,2.7,0.3,4.1c0.1,3.7,0.3,7.5,0.2,11.2
				c-0.4,10.9-1.8,21.7-4.5,32.2c-1,3.9-2.4,7.6-4.3,11.1c-1.2,2.4-2.7,4.5-4.6,6.4c-3.7,3.7-8.2,5-13.3,3.8
				c-2.5-0.6-4.8-1.9-6.6-3.8c-4.1-4.1-7.4-8.7-8.6-14.5c-0.6-2.9-1.2-5.9-1.4-8.9c-1-13.5,0.6-26.7,4.6-39.7c0.8-2.5,1.7-5,3-7.3
				c0.5-0.9,1.1-1.8,1.7-2.6c0.5-0.6,0.6-1.2,0.5-1.9c-0.3-3.4,0.5-6.5,2.4-9.3c3.4-4.9,9.5-6.7,15-4.3c4.4,1.9,7.8,5.1,10.4,9.1
				c1.5,2.4,2.8,4.9,3.7,7.6c0.1,0.2,0.2,0.5,0.3,0.8c0.3-0.1,0.5-0.1,0.7-0.2c2.3-1,4.4-2.1,6.5-3.5c0.5-0.4,0.7-0.7,0.7-1.4
				c0-4.5,0-9.1,0.1-13.6c0.1-4.7,0.3-9.4,0.6-14.1c0.1-3.2,0.3-6.4,0.5-9.6c0.9-13.5,2.7-26.8,6.9-39.7c1.3-4,2.7-7.9,4.8-11.5
				c2.2-4,5-7.6,8.7-10.4c2.4-1.8,5-3,8-3.5c2.9-0.5,5.6,0.2,8.1,1.8c2.2,1.4,4,3.3,5.3,5.6c3,5,4.5,10.5,4.7,16.3
				c0.2,6.3-0.9,12.5-2.9,18.4c-4.9,15.4-11.9,29.9-21.5,43c-0.6,0.9-0.9,1.8-1,2.9c-0.2,7.7-0.5,15.5-0.7,23.2
				c-0.1,6-0.3,11.9-0.1,17.9c0.2,6.7,1.2,13.4,3.1,19.8c0.7,2.4,1.7,4.8,2.7,7.1c0.5,1.1,1.2,2.1,2,2.9c1.1,1.2,1.9,1.2,3,0.1
				c1-1,2-2.1,2.8-3.3c1.7-2.6,3.3-5.3,4.8-8c4.1-7.1,6.5-14.8,8.7-22.7c0.5-1.6,0.7-3.3,0.8-4.9c0.4-5.7,0.7-11.4,1.2-17.2
				c0.6-6.4,1.2-12.7,1.9-19.1c0.6-5.3,1.1-10.6,1.8-15.9c1.9-14.1,4.2-28.1,8-41.8c1.6-5.7,3.5-11.2,6-16.5
				c1.7-3.5,3.6-6.8,6.1-9.7c2.7-3.1,5.8-5.5,9.9-6.6c5-1.4,10,0.3,13.2,4.4c2.1,2.7,3.2,5.8,4.1,9.1c1.2,4.4,1.2,8.9,0.8,13.4
				c-1,11.2-4.5,21.7-9.2,31.9c-5.7,12.5-12.6,24.3-20.4,35.6c-0.6,0.9-1.2,1.8-1.9,2.6c-0.4,0.5-0.7,1.1-0.7,1.8
				c-0.5,5-1,10.1-1.4,15.1c-0.4,4.8-0.7,9.6-1,14.4c-0.1,2.1-0.2,4.2-0.4,6.3C315.9,200.1,315.9,200.2,316,200.2z M315,219.6
				c0,0.7-0.1,1.1-0.1,1.5c0,1.5,0,3.1-0.1,4.6c-0.1,8.1,0.1,16.2,0.8,24.3c0.6,6.8,1.4,13.6,2.6,20.4c1,5.6,2.2,11.1,4,16.5
				c1.5,4.5,3.6,8.6,6.7,12.2c0.5,0.6,1.1,1.2,1.7,1.7c0.7,0.6,1,0.6,1.6-0.2c0.8-1,1.7-2.1,2.3-3.3c2.2-4,3.5-8.4,4.1-12.9
				c1.1-7.5,0.7-15.1-0.7-22.6c-1.8-9.1-5.1-17.7-9.5-25.9c-3.1-5.7-7-10.8-11.9-15.1C316.1,220.5,315.7,220.1,315,219.6z
				 M220.8,188.3c-0.2,0.6-0.4,1.1-0.6,1.7c-1.9,5.9-3.4,11.9-4.3,18.1c-1,6.6-1.3,13.3-0.6,19.9c0.3,2.9,0.9,5.7,2.2,8.4
				c0.7,1.4,1.6,2.6,2.8,3.5c2.3,1.7,3.7,1.7,5.8-0.3c1.9-1.8,3.4-3.9,4.3-6.4c1.4-3.7,2.4-7.5,3.1-11.4c1.1-5.4,1.8-10.9,2.3-16.5
				c0.5-5.7,0.5-11.3-0.1-16.9c0-0.3-0.1-0.5-0.2-0.9C230.6,189.1,225.8,189.3,220.8,188.3z M320.5,149.2c0.1,0,0.1,0.1,0.2,0.1
				c0.2-0.3,0.5-0.6,0.7-0.8c3.9-5.1,7.3-10.5,10.1-16.3c3.4-6.9,6.3-14.1,8.6-21.4c2.3-7.2,3.5-14.7,3.4-22.3c0-3-0.4-5.9-1.4-8.8
				c-0.3-1-0.9-1.9-1.5-2.7c-0.6-0.9-1.4-0.9-2.4-0.4c-1.1,0.6-1.9,1.4-2.6,2.4c-0.7,1.1-1.3,2.2-1.9,3.4c-1.5,3.3-2.8,6.7-3.7,10.3
				c-2.6,10.1-4.4,20.4-5.8,30.7c-0.9,6.4-1.9,12.8-2.8,19.2C321.2,144.8,320.8,147,320.5,149.2z M271.3,148.2
				c0.2-0.3,0.3-0.4,0.4-0.5c2-3.3,4-6.5,5.8-9.9c3.4-6.3,6-12.9,8.6-19.6c1.9-5,3.2-10.1,3.8-15.4c0.6-5.3-0.1-10.4-2.2-15.3
				c-0.6-1.3-1.4-2.4-2.2-3.6c-0.5-0.8-1.3-1.3-2.2-1.7c-0.7-0.3-1.3-0.3-1.9,0.3c-0.7,0.7-1.4,1.4-1.9,2.2
				c-0.6,1.1-1.2,2.2-1.6,3.4c-1.5,4.2-2.3,8.5-2.9,12.8c-1,6.5-1.3,13.1-1.8,19.7c-0.3,4.1-0.6,8.2-0.9,12.2
				c-0.4,4.8-0.7,9.6-1,14.5C271.3,147.5,271.3,147.7,271.3,148.2z M234.3,181.3c-0.8-2.5-1.8-4.8-3.1-6.9c-1.4-2.2-3.3-3.9-5.5-5.1
				c-0.8-0.4-1.7-0.7-2.6-1c-1.2-0.3-2.3,0.1-3.3,0.9c-1.7,1.5-3,5.6-0.8,8.4c0.9,1.2,2.1,2.1,3.5,2.8c3.3,1.7,6.7,1.9,10.2,1.3
				C233.2,181.6,233.7,181.4,234.3,181.3z"/>
			<path class="st0" d="M130.9,194.4c0,5.8,0.1,11.9,0.8,17.9c1.1,9.9,2.9,19.7,6.7,29.1c1.3,3.1,2.7,6.1,4.3,9.1
				c2.2,4.2,5.1,7.8,8.5,11.1c3,2.9,6.4,5.1,10.5,6.3c3.6,1.1,6.8,0.4,9.6-2.2c1.7-1.6,3-3.6,3.9-5.8c2.8-6.6,4.9-13.5,5.9-20.7
				c0.9-6.8,1.5-13.6,1.8-20.5c0.3-5.7,0.6-11.4,0.3-17.1c-0.1-1.9-0.3-3.8-0.6-5.7c-0.7-4.3-3.4-7-7.4-8.3
				c-2.2-0.7-4.6-0.4-6.7,0.6c-1,0.5-1.7,1.4-2.1,2.4c-0.8,1.7-1,3.6-1.2,5.4c-0.3,4.3-0.2,8.6,0.1,12.8c0.2,2.8,0.6,5.6,0.9,8.4
				c0.1,0.9,0.1,1.8-0.1,2.7c-0.5,2-1.8,3.4-3.8,3.8c-2,0.4-3.7-0.3-4.9-2c-0.5-0.6-0.8-1.4-1.1-2.2c-1.3-4.3-2-8.8-2.3-13.3
				c-0.2-2.8-0.1-5.6,0.3-8.4c0.5-3.5,1.6-6.9,3.2-10.1c2.4-4.6,6.3-7.2,11.3-8.1c3.1-0.6,6.2-0.5,9.3,0.4c6.1,1.6,10,5.5,11.7,11.5
				c0.9,3.1,1.2,6.4,1.4,9.6c0.3,4.7,0.2,9.5-0.1,14.2c-0.6,12-2,23.8-4.9,35.5c-1.1,4.4-2.2,8.8-4,13c-1.8,4.3-4.3,8.1-7.5,11.4
				c-3.5,3.6-7.9,5.4-12.8,5.8c-3.6,0.3-7-0.2-10.4-1.3c-6.1-2.1-11.2-5.7-15.5-10.4c-6.1-6.7-10.5-14.5-13.6-22.9
				c-2.9-7.9-4.9-16.1-6.1-24.4c-0.8-5.5-1.4-10.9-1.5-16.4c-0.1-5.1-0.3-10.3-0.1-15.4c0.2-6.5,0.8-13,1.6-19.5
				c1-7.5,2.2-14.9,3.9-22.2c2.1-9.3,4.9-18.3,8.9-27c1.7-3.7,3.8-7.2,6.5-10.4c5.3-6.4,12.1-10.1,20.4-11.1
				c6.9-0.8,13.1,1.2,18.7,5.1c6.4,4.5,10.3,10.6,11.6,18.4c0.5,3.1,0.3,6.3-0.2,9.3c-1.4,7.8-4.1,15.2-8.7,21.7
				c-0.8,1.1-1.6,2.2-2.4,3.3c-0.5,0.7-1.2,1.2-2,1.5c-1.6,0.5-3-0.4-3.2-2.1c-0.1-1.1,0.3-2,1-2.9c0.7-0.9,1.4-1.8,2-2.7
				c4-5.6,6.5-11.8,7.7-18.6c0.8-4.5,0.5-8.9-0.8-13.3c-1.7-6-5.9-9.6-11.5-11.7c-3.5-1.3-7-1.4-10.5-0.2c-1.1,0.4-2.1,0.9-3.1,1.5
				c-2.3,1.5-4.1,3.6-5.7,5.8c-2.3,3.2-4,6.8-5.6,10.4c-3.2,7.3-5.2,14.9-6.9,22.6c-1.6,7.4-2.9,14.8-3.7,22.2
				C131.5,178.6,130.9,186.3,130.9,194.4z"/>
		</g>
		<g>
			<path class="st28" d="M198.7,338c0,0.3-0.4,6.4-2.6,12.7c-1.9,5.3-6.6,14.3-16.7,14.3c-5.7,0-13.2-2.5-16.8-14.5
				c-2.2-7.4-2.5-16.6-2.5-25.5c0-25.4,7-40,19.3-40c14.7,0,18.9,19.8,19.1,20.7l-8.3,1.7c0-0.1-3.2-13.9-10.8-13.9
				c-7.5,0-10.9,15.8-10.9,31.5c0,22.4,3.1,31.5,10.8,31.5c9.5,0,10.8-18.8,10.8-19L198.7,338z"/>
			<path class="st28" d="M205.4,362.6v-76.1h8.5v76.1H205.4z"/>
			<path class="st28" d="M271.4,298.4l0.1,64.2l-8.5,0l0-13.7c-1.7,3.7-3.6,6.6-5.8,8.9c-3.5,3.6-7.6,5.5-12.3,5.5
				c-4.6,0-8.7-1.9-12.2-5.5c-6.7-7.1-10.7-21.5-11.9-42.6c-0.9-15.3,0-28.4,0-28.9l8.4,0.6c-1,14.2-1.2,53.7,9.6,65.2
				c1.8,1.9,3.7,2.8,6,2.8c2.3,0,4.3-0.9,6.2-2.9c8.7-9.1,11.3-35,11.8-52.8l0-12.6l8.5-0.2C271.4,286.7,271.5,291.4,271.4,298.4z"
				/>
			<path class="st28" d="M318.9,356.5c-3.3,5-8.5,7.7-14.9,7.8c-0.2,0-0.3,0-0.5,0c-5,0-10.6-1.5-16.9-4.5v2.8h-8.5v-76.3h8.5v33.3
				c11.7-9.2,20.9-4.6,24.7-1.8C322.3,326.1,326.2,345.6,318.9,356.5z M306.2,324.7c-3.9-2.9-10.4-4-19.6,6.7v19
				c7.1,3.9,20,9.4,25.3,1.5C316.7,344.6,313.7,330.2,306.2,324.7z"/>
		</g>
	</g>
</g>
</svg>
